<svg version="1.1" id="Layer_1" xmlns="http://www.w3.org/2000/svg" xmlns:xlink="http://www.w3.org/1999/xlink" x="0px" y="0px"
	 width="100%" viewBox="0 0 656 416" enable-background="new 0 0 656 416" xml:space="preserve">
<path fill="#000000" opacity="1.000000" stroke="none" 
	d="
M272.304260,160.352432 
	C280.528259,148.800339 288.447906,137.470886 296.614471,126.322311 
	C298.656250,123.535027 298.401031,121.518021 296.684052,118.747269 
	C287.388733,103.746834 278.269073,88.637390 269.127747,73.541969 
	C268.396484,72.334404 267.093689,71.301834 267.509796,69.293991 
	C269.627655,69.390564 271.100586,70.813080 272.708069,71.800751 
	C287.175781,80.689964 301.678802,89.524765 316.022095,98.611305 
	C319.390045,100.744934 321.806122,100.479347 324.935394,98.209412 
	C347.981903,81.491570 371.129059,64.912270 394.286224,48.347652 
	C395.810272,47.257473 397.044373,45.412643 399.369019,45.624950 
	C399.939087,47.514011 398.390198,48.352139 397.587280,49.479218 
	C380.878021,72.934875 364.214752,96.424065 347.343689,119.762955 
	C344.725677,123.384598 344.486664,126.045998 346.955078,129.936478 
	C355.784271,143.852371 364.220947,158.018066 372.734924,172.132202 
	C373.714539,173.756134 375.340363,175.180908 375.098206,177.681458 
	C372.905792,177.643738 371.396912,176.281342 369.785004,175.290329 
	C355.884644,166.744308 341.869690,158.372131 328.201721,149.467957 
	C323.752563,146.569489 320.826813,147.091766 316.779724,150.052002 
	C294.877625,166.072235 272.769714,181.811249 250.723343,197.634079 
	C248.721817,199.070587 246.653671,200.414215 244.616455,201.800964 
	C244.273148,201.507034 243.929840,201.213104 243.586533,200.919174 
	C253.088120,187.493439 262.589691,174.067719 272.304260,160.352432 
z"/>
<path fill="#000000" opacity="1.000000" stroke="none" 
	d="
M290.732910,304.879456 
	C288.439697,288.907593 293.080383,275.696686 305.042664,265.631104 
	C314.179443,257.943054 324.988953,254.384567 337.061432,256.863647 
	C343.498413,258.185486 348.163086,262.590271 352.483826,267.861755 
	C353.177826,266.744690 353.591125,266.256073 353.815216,265.692261 
	C357.363708,256.764008 361.107025,254.827362 370.559875,257.040955 
	C373.738434,257.785248 375.352386,259.623596 375.345123,263.029877 
	C375.296204,285.999603 375.290771,308.969543 375.342773,331.939270 
	C375.351776,335.925842 373.222839,337.836517 369.618134,338.069916 
	C365.641663,338.327332 361.633514,338.215668 357.643738,338.102753 
	C355.261169,338.035339 353.692017,336.653778 352.752472,334.445831 
	C352.117126,332.952942 351.893433,331.198914 350.214752,330.035034 
	C349.720856,330.334473 349.137726,330.615631 348.636322,331.002625 
	C333.813141,342.443878 317.798157,341.636597 303.836029,328.874390 
	C296.812469,322.454437 292.581696,314.573486 290.732910,304.879456 
M346.694458,309.101593 
	C347.474854,307.634094 348.383728,306.219513 349.013611,304.690033 
	C351.890564,297.703918 350.634644,291.233856 345.953064,285.538269 
	C341.276245,279.848419 335.168640,277.224823 327.767853,278.786377 
	C319.722534,280.483917 314.542206,287.123962 313.551605,296.586639 
	C312.754364,304.202148 317.681305,312.642334 324.679962,315.650391 
	C331.868408,318.739960 340.124573,316.460052 346.694458,309.101593 
z"/>
<path fill="#000000" opacity="1.000000" stroke="none" 
	d="
M209.338806,233.716217 
	C214.304153,233.691513 218.801697,233.694092 223.299225,233.687317 
	C227.436981,233.681076 229.372940,235.753128 229.347885,239.875061 
	C229.301712,247.471008 229.334702,255.067429 229.334702,263.532043 
	C233.706314,260.344482 237.170517,257.546173 241.692642,256.670074 
	C257.057709,253.693329 271.141113,261.986053 276.013428,277.154846 
	C277.485962,281.739166 278.411804,286.447052 278.364502,291.360992 
	C278.237885,304.519409 278.358398,317.679993 278.317230,330.839539 
	C278.298615,336.792389 276.944794,338.103027 270.915009,338.215240 
	C267.584686,338.277252 264.251495,338.260590 260.920746,338.207062 
	C255.204636,338.115204 253.841766,336.889526 253.792358,331.093475 
	C253.681564,318.101288 253.704407,305.107544 253.746567,292.114685 
	C253.761993,287.357635 251.821442,283.707794 247.826782,281.264679 
	C239.288452,276.042755 229.587967,282.162537 229.403946,293.074371 
	C229.196106,305.397705 229.366455,317.727173 229.341476,330.053925 
	C229.327454,336.964417 228.144012,338.144684 221.192734,338.211578 
	C217.695511,338.245209 214.192749,338.281403 210.700790,338.127747 
	C206.803940,337.956238 204.621124,336.132416 204.628403,331.866455 
	C204.681000,301.049744 204.645660,270.232849 204.630936,239.416031 
	C204.629517,236.449142 205.442932,234.127121 209.338806,233.716217 
z"/>
<path fill="#000000" opacity="1.000000" stroke="none" 
	d="
M456.648926,307.683716 
	C464.399200,296.687836 464.384705,296.698029 456.878387,286.027924 
	C451.707306,278.677338 446.497925,271.351288 441.470184,263.903229 
	C438.460754,259.445129 439.302155,257.600067 444.671204,257.267700 
	C450.141388,256.929077 455.647552,257.144745 461.137756,257.168121 
	C464.380951,257.181946 466.176025,259.272186 467.719727,261.808411 
	C471.072998,267.317688 474.512604,272.774445 477.845734,278.138123 
	C480.499908,277.605804 480.967194,275.639435 481.875122,274.154388 
	C484.478790,269.895691 487.019562,265.597748 489.530518,261.283508 
	C491.090485,258.603271 493.362549,257.165039 496.450623,257.142029 
	C501.775940,257.102356 507.112061,256.923370 512.424438,257.188416 
	C517.632141,257.448212 518.622864,259.560394 515.589294,263.940552 
	C508.957062,273.517059 502.238403,283.038055 495.337250,292.421570 
	C493.217041,295.304474 493.115540,297.473938 495.253571,300.391846 
	C502.237366,309.923065 508.987823,319.625397 515.812744,329.272705 
	C517.250183,331.304565 519.150391,333.406921 517.899536,336.056488 
	C516.573608,338.864990 513.658691,338.172394 511.236938,338.206238 
	C506.410461,338.273712 501.579132,338.110168 496.755737,338.248108 
	C492.790680,338.361450 490.253357,336.723877 488.436798,333.177521 
	C485.498840,327.441864 482.211792,321.885010 478.608276,315.420471 
	C475.111328,321.644714 471.894531,327.009430 469.045227,332.562744 
	C466.982910,336.582214 464.143127,338.515625 459.531403,338.286530 
	C454.383484,338.030762 449.211273,338.313354 444.053619,338.191650 
	C438.612671,338.063293 437.196106,335.382751 440.317139,330.818787 
	C445.577515,323.126526 451.057007,315.584106 456.648926,307.683716 
z"/>
<path fill="#000000" opacity="1.000000" stroke="none" 
	d="
M177.090912,257.553467 
	C181.539841,258.713226 185.376587,260.255798 188.823578,262.674896 
	C193.806900,266.172211 193.662201,268.109314 187.670792,278.063232 
	C184.325958,283.620209 182.322861,284.318451 177.281616,281.684845 
	C168.340271,277.013763 160.960327,277.262939 154.970383,282.438171 
	C148.901733,287.681427 146.746002,297.082092 149.722992,305.321106 
	C153.222702,315.006805 163.304550,319.399048 172.890305,315.347168 
	C174.721741,314.572968 176.429001,313.505066 178.193756,312.573090 
	C181.172592,310.999969 183.675858,311.568848 185.571930,314.344513 
	C187.730301,317.504120 189.727005,320.775909 191.933868,323.900116 
	C194.213593,327.127411 193.154144,329.479126 190.248901,331.458984 
	C164.406830,349.069489 132.264648,335.743561 125.821960,307.597626 
	C119.979965,282.075928 135.923431,259.585144 161.876770,256.044769 
	C166.906448,255.358658 171.794739,256.514465 177.090912,257.553467 
z"/>
<path fill="#000000" opacity="1.000000" stroke="none" 
	d="
M391.996704,283.149841 
	C386.141449,282.487640 384.295837,279.206451 384.671112,274.072815 
	C384.840637,271.753387 384.757904,269.409821 384.690704,267.080078 
	C384.569061,262.862610 385.842377,259.789398 390.692139,259.692169 
	C393.446228,259.636963 394.291626,257.880188 393.889923,255.712265 
	C391.670837,243.735001 398.239075,238.757965 408.687317,236.701096 
	C409.820740,236.477982 410.891052,235.951309 412.008545,235.627213 
	C417.002991,234.178726 419.179260,235.745438 419.311401,241.072723 
	C419.427032,245.733429 419.501587,250.405823 419.299469,255.060242 
	C419.150360,258.493988 420.354919,260.054871 423.880249,259.707733 
	C425.363617,259.561676 426.875519,259.696503 428.374268,259.717102 
	C432.220673,259.769958 434.238281,261.705566 434.294342,265.569763 
	C434.340271,268.733612 434.358856,271.898895 434.322662,275.062775 
	C434.252777,281.172180 432.786926,282.669067 426.676849,282.985260 
	C419.354156,283.364197 419.351593,283.364166 419.348755,290.450714 
	C419.343384,303.774872 419.363892,317.099121 419.327667,330.423187 
	C419.311218,336.469513 417.750336,338.034637 411.642853,338.202759 
	C408.647217,338.285248 405.647064,338.245880 402.649567,338.209686 
	C395.471191,338.123077 394.115509,336.851593 394.042114,329.209229 
	C393.914154,315.886230 394.019531,302.561157 393.941254,289.237457 
	C393.929169,287.179993 394.618561,284.812927 391.996704,283.149841 
z"/>
<path fill="#000000" opacity="1.000000" stroke="none" 
	d="
M300.231262,177.756454 
	C317.466431,184.429459 333.774536,182.980972 349.664886,174.596390 
	C351.511963,173.621780 354.089081,170.795822 355.645538,173.571487 
	C357.247345,176.428040 353.396210,177.099319 351.630981,178.061020 
	C332.079803,188.712448 312.301758,188.719803 292.444092,178.880402 
	C290.903381,178.117004 288.348145,177.342575 289.340302,175.133591 
	C290.564301,172.408524 292.738922,174.440979 294.433716,175.119812 
	C296.283112,175.860565 298.055664,176.793182 300.231262,177.756454 
z"/>
<path fill="#000000" opacity="1.000000" stroke="none" 
	d="
M305.802460,67.714828 
	C300.734894,69.564194 296.063171,71.308792 291.822449,74.017227 
	C289.985443,75.190453 288.094757,76.261230 286.170898,74.524704 
	C285.785126,72.519707 287.062531,71.885582 288.180573,71.196449 
	C307.720459,59.152267 327.937012,58.650818 348.698059,67.691040 
	C349.456207,68.021187 350.177521,68.457161 350.868530,68.915382 
	C351.941254,69.626701 352.564453,70.597504 351.868439,71.864014 
	C351.273529,72.946503 350.231049,72.816254 349.241699,72.483093 
	C348.455383,72.218300 347.669556,71.930649 346.923950,71.569649 
	C333.832123,65.231117 320.256226,63.885815 305.802460,67.714828 
z"/>
<path fill="#000000" opacity="1.000000" stroke="none" 
	d="
M265.032959,110.992676 
	C261.700043,124.380325 263.543182,136.798370 269.110535,148.798630 
	C269.460938,149.553940 269.866211,150.288849 270.153076,151.067490 
	C270.610535,152.309128 271.314484,153.782150 269.664154,154.557755 
	C268.075470,155.304367 267.285950,153.942780 266.594604,152.786163 
	C262.771667,146.390594 260.578796,139.353607 259.845459,132.057877 
	C258.416595,117.842949 260.370758,104.164574 268.132202,91.762428 
	C268.485626,91.197708 268.811279,90.614571 269.185059,90.063881 
	C270.025391,88.825790 270.878937,87.180725 272.673035,88.286697 
	C274.398407,89.350342 273.516754,90.902740 272.763336,92.230339 
	C269.467896,98.037224 266.389496,103.931694 265.032959,110.992676 
z"/>
<path fill="#000000" opacity="1.000000" stroke="none" 
	d="
M377.211853,95.883423 
	C386.553101,116.195549 385.690521,135.794846 375.225067,155.039383 
	C374.749451,155.914017 374.226959,156.768829 373.659088,157.586197 
	C372.950897,158.605453 372.021606,159.442429 370.754700,158.615326 
	C369.576508,157.846146 369.718353,156.619858 370.250397,155.489914 
	C370.745300,154.438843 371.334229,153.431580 371.892609,152.410950 
	C381.572418,134.716431 382.394409,116.730927 373.669678,98.430969 
	C373.526581,98.130806 373.328369,97.847710 373.238190,97.533058 
	C372.736206,95.781685 370.415192,93.654488 372.965393,92.328522 
	C375.516571,91.002090 375.981964,94.028709 377.211853,95.883423 
z"/>
</svg>